# xmcd CD database file
#
# Track frame offsets:
#	150
#	21978
#	43388
#	65218
#
# Disc length: 1153 seconds
#
# Revision: 13
# Processed by: cddbd v1.5.1PL0 Copyright (c) Steve Scherf et al.
# Submitted via: CDex 1.51
#
DISCID=3b047f04
DTITLE=＆Ｇ - Wonderful Life
DYEAR=2004
DGENRE=Pop
TTITLE0=Wonderful Life
TTITLE1=平和の歌
TTITLE2=Wonderful Life(music track)
TTITLE3=平和の歌 (music track)
EXTD=YEAR: 2004
EXTT0=
EXTT1=
EXTT2=
EXTT3=
PLAYORDER=
